<svg xmlns="http://www.w3.org/2000/svg" viewBox="199.95 64.72 228.05 234.21">
<g>
<path d="M 203.31 235.59 L 200.50 233.17 L 200.22 182.17 L 199.95 131.17 L 202.25 128.49 C206.69,123.34 208.78,124.07 239.00,141.46 C291.58,171.71 296.77,174.42 297.07,177.58 C297.13,178.20 297.00,178.83 297.00,179.68 C297.00,181.80 296.26,183.66 294.97,184.76 C289.87,189.14 210.41,238.00 208.39,238.00 C207.14,238.00 204.85,236.91 203.31,235.59 Z" fill="rgba(18,67,105,1)"/>
<path d="M 301.00 171.68 C299.62,170.96 291.98,166.54 284.00,161.85 C276.02,157.17 258.02,146.66 244.00,138.51 C229.98,130.35 217.49,122.77 216.25,121.66 C213.16,118.90 213.21,113.55 216.36,110.75 C217.65,109.60 225.64,105.00 234.11,100.53 C242.57,96.07 261.17,86.15 275.43,78.51 C303.42,63.49 305.90,62.68 310.47,66.97 L 313.00 69.35 L 313.00 168.09 L 310.55 170.55 C307.81,173.28 304.75,173.64 301.00,171.68 Z" fill="rgba(43,140,60,1)"/>
<path d="M 319.41 296.68 L 316.71 294.35 L 315.45 269.43 C314.75,255.72 313.61,232.46 312.91,217.75 L 311.64 191.01 L 314.00 188.50 C318.28,183.94 321.18,184.82 345.94,198.15 C358.35,204.83 371.42,211.96 375.00,213.99 C378.58,216.02 387.90,221.19 395.72,225.47 C408.06,232.24 410.07,233.69 411.00,236.51 C413.08,242.80 412.32,243.44 369.03,272.14 C325.33,301.11 324.84,301.35 319.41,296.68 Z" fill="rgba(214,3,50,1)"/>
<path d="M 278.11 286.90 C237.95,268.51 215.36,257.65 213.25,255.72 C210.71,253.38 210.16,247.44 212.25,244.80 C212.94,243.94 223.85,236.58 236.50,228.46 C249.15,220.35 267.60,208.51 277.50,202.15 C297.04,189.61 300.02,188.57 304.27,192.83 C306.44,194.99 306.52,195.85 307.14,223.28 C307.49,238.80 307.83,259.97 307.89,270.33 L 308.00 289.15 L 305.08 292.08 C302.97,294.19 301.23,294.98 298.83,294.93 C296.91,294.89 288.13,291.49 278.11,286.90 Z" fill="rgba(222,179,65,1)"/>
<path d="M 410.50 228.17 C407.75,226.62 395.83,220.04 384.00,213.53 C372.17,207.03 357.10,198.68 350.50,194.98 C343.90,191.28 334.82,186.41 330.33,184.16 C321.37,179.66 319.00,177.20 319.00,172.37 C319.00,168.31 321.84,165.86 334.18,159.27 C339.31,156.52 359.58,145.64 379.24,135.08 C411.47,117.77 415.39,115.91 419.14,116.19 C422.24,116.42 423.79,117.16 425.23,119.10 C427.07,121.56 427.20,124.34 427.74,172.27 C428.35,226.54 428.27,227.65 423.39,229.87 C419.45,231.66 415.87,231.19 410.50,228.17 Z" fill="rgba(231,232,229,1)"/>
</g>
</svg>