<?xml version="1.0" encoding="utf-8"?>
<!-- Generator: Adobe Illustrator 27.5.0, SVG Export Plug-In . SVG Version: 6.00 Build 0)  -->
<svg version="1.1" xmlns="http://www.w3.org/2000/svg" xmlns:xlink="http://www.w3.org/1999/xlink" x="0px" y="0px"
	 viewBox="0 0 500 500" style="enable-background:new 0 0 500 500;" xml:space="preserve">
<g id="BACKGROUND">
	<g>
		<rect style="fill:#F9FBFC;" width="500" height="500"/>
		<g>
			<g>
				<path style="fill:#D9E9F6;" d="M477.294,405.713c-1.528,1.798-5.473,3.134-10.814,4.11c-5.342,0.993-12.095,1.627-19.227,2.021
					c-21.571,1.216-46.562,0.24-46.562,0.24l-20.188-0.497l-25.209-0.617c0,0-334.781-8.271-334.783-8.271
					c-2.855-0.027-3.416-33.865-3.35-37.384c0.212-11.363,0.841-22.716,1.888-34.015c1.089-11.758,0.189-25.196,7.042-34.892
					c3.254-4.604,7.692-7.469,10.182-12.838c2.585-5.576,3.353-12.22,3.515-18.482c0.3-11.545-1.036-23.118-0.267-34.632
					c0.583-8.717,2.53-17.749,6.972-24.902c4.761-7.667,12.48-7.798,19.937-9.461c5.745-1.281,11.951-4.083,14.403-10.329
					c2.741-6.98,0.493-14.918,2.654-22.046c1.931-6.372,7.785-9.376,12.785-11.895c11.604-5.846,24.38-7.232,36.412-11.419
					c3.274-1.139,6.643-2.602,8.914-5.602c5.793-7.651,4.629-18.492,11.805-25.784c7.294-7.412,17.516-9.338,27.154-9.358
					c9.831-0.02,19.462,0.531,29.286-0.079c10.413-0.647,21.404-0.365,31.583,2.461c13.435,3.73,25.684,12.122,39.577,13.718
					c15.277,1.755,30.617-1.749,45.822-2.976c20.193-1.629,41.673-0.376,61.573,4.045c8.383,1.863,17.362,5.673,21.7,14.957
					c3.135,6.708,3.548,14.983,7.392,21.161c7.199,11.571,20.085,8.709,29.863,14.406c10.798,6.291,15.214,21.364,18.618,34.964
					c2.581,10.31,7.096,23.638,2.586,34.002c-2.393,5.499-7.008,9.139-10.182,14.061c-5.039,7.814-4.585,16.709-4.768,25.987
					c-0.239,12.069,0.26,20.304,10.051,26.294c9.914,6.065,14.656,12.096,16.05,25.433c1.794,17.165,3.116,34.558,3.116,51.862
					C482.823,388.427,482.758,399.284,477.294,405.713z"/>
				<path style="fill:#F9FBFC;" d="M265.934,125.263c0.119,2.942-1.727,5.149-4.104,4.91c-2.377-0.239-4.424-2.794-4.588-5.689
					c-0.164-2.895,1.661-5.081,4.084-4.889C263.748,119.787,265.815,122.321,265.934,125.263z"/>
				<path style="fill:#D9E9F6;" d="M477.571,258.228c0.547,1.444,0.605,3.072,0.597,4.653c-0.007,1.448-0.062,2.896-0.165,4.339
					c-0.104,1.467-0.273,2.983-0.934,4.234c-0.408,0.772-0.987,1.404-1.616,1.932c-5.616,4.709-12.608,0.394-14.443-6.794
					c-1.72-6.736,3.34-11.816,8.724-12.572C472.68,253.606,476.268,254.787,477.571,258.228z"/>
				<path style="fill:#F9FBFC;" d="M76.657,203.631c2.08,0.146,4.486,0.623,5.495,2.768c0.402,0.856,0.509,1.863,0.506,2.842
					c-0.005,1.592-0.308,3.249-1.17,4.476c-0.997,1.42-2.583,2.062-4.121,2.406c-1.606,0.36-3.245,0.467-4.879,0.556
					c-1.351,0.074-2.782,0.115-3.964-0.657c-0.642-0.419-1.164-1.052-1.632-1.718c-0.743-1.057-1.388-2.259-1.602-3.608
					C63.947,202.194,72.332,203.327,76.657,203.631z"/>
			</g>
			<g>
				<defs>
					<path id="SVGID_3_" d="M477.294,405.713c-1.528,1.798-5.473,3.134-10.814,4.11c-5.342,0.993-12.095,1.627-19.227,2.021
						c-21.571,1.216-46.562,0.24-46.562,0.24l-20.188-0.497l-25.209-0.617c0,0-334.781-8.271-334.783-8.271
						c-2.855-0.027-3.416-33.865-3.35-37.384c0.212-11.363,0.841-22.716,1.888-34.015c1.089-11.758,0.189-25.196,7.042-34.892
						c3.254-4.604,7.692-7.469,10.182-12.838c2.585-5.576,3.353-12.22,3.515-18.482c0.3-11.545-1.036-23.118-0.267-34.632
						c0.583-8.717,2.53-17.749,6.972-24.902c4.761-7.667,12.48-7.798,19.937-9.461c5.745-1.281,11.951-4.083,14.403-10.329
						c2.741-6.98,0.493-14.918,2.654-22.046c1.931-6.372,7.785-9.376,12.785-11.895c11.604-5.846,24.38-7.232,36.412-11.419
						c3.274-1.139,6.643-2.602,8.914-5.602c5.793-7.651,4.629-18.492,11.805-25.784c7.294-7.412,17.516-9.338,27.154-9.358
						c9.831-0.02,19.462,0.531,29.286-0.079c10.413-0.647,21.404-0.365,31.583,2.461c13.435,3.73,25.684,12.122,39.577,13.718
						c15.277,1.755,30.617-1.749,45.822-2.976c20.193-1.629,41.673-0.376,61.573,4.045c8.383,1.863,17.362,5.673,21.7,14.957
						c3.135,6.708,3.548,14.983,7.392,21.161c7.199,11.571,20.085,8.709,29.863,14.406c10.798,6.291,15.214,21.364,18.618,34.964
						c2.581,10.31,7.096,23.638,2.586,34.002c-2.393,5.499-7.008,9.139-10.182,14.061c-5.039,7.814-4.585,16.709-4.768,25.987
						c-0.239,12.069,0.26,20.304,10.051,26.294c9.914,6.065,14.656,12.096,16.05,25.433c1.794,17.165,3.116,34.558,3.116,51.862
						C482.823,388.427,482.758,399.284,477.294,405.713z"/>
				</defs>
				<clipPath id="SVGID_00000100355257311014135790000006148025656769676673_">
					<use xlink:href="#SVGID_3_"  style="overflow:visible;"/>
				</clipPath>
				<g style="clip-path:url(#SVGID_00000100355257311014135790000006148025656769676673_);">
					<g>
						<path style="fill:#F9FBFC;" d="M20.075,189.599l-2.361-1.851c15.712-20.048,41.811-30.195,66.491-25.842
							c4.311,0.759,8.578,1.943,12.705,3.088c5.152,1.43,10.48,2.908,15.809,3.519c11.228,1.285,22.763-1.271,32.482-7.202
							c5.571-3.4,10.599-7.93,15.461-12.311c5.184-4.67,10.544-9.5,16.676-13.1c12.897-7.572,29.008-9.208,43.098-4.379
							c4.929,1.69,9.608,4.129,14.133,6.489c5.307,2.767,10.793,5.628,16.551,7.171c12.31,3.299,25.369,0.581,37.997-2.049
							c4.428-0.922,9.006-1.876,13.508-2.563c21.777-3.327,44.094-0.646,64.54,7.756c7.326,3.01,14.431,6.772,21.303,10.41
							c6.646,3.518,13.517,7.155,20.524,10.073c19.838,8.26,41.542,11.13,62.766,8.301l0.397,2.974
							c-21.75,2.899-43.988-0.04-64.316-8.505c-7.135-2.971-14.068-6.642-20.774-10.191c-6.809-3.605-13.848-7.331-21.04-10.287
							c-19.942-8.194-41.71-10.81-62.946-7.565c-4.422,0.675-8.961,1.621-13.35,2.535c-12.972,2.7-26.386,5.494-39.385,2.009
							c-6.076-1.629-11.711-4.567-17.161-7.409c-4.427-2.308-9.004-4.695-13.719-6.311c-13.273-4.551-28.453-3.007-40.607,4.128
							c-5.868,3.446-11.113,8.171-16.186,12.742c-4.964,4.472-10.097,9.097-15.906,12.642c-10.287,6.276-22.497,8.983-34.386,7.622
							c-5.562-0.637-11.005-2.147-16.269-3.608c-4.058-1.126-8.254-2.29-12.423-3.025C60.444,160.764,34.881,170.706,20.075,189.599
							z"/>
					</g>
					<g>
						<path style="fill:#F9FBFC;" d="M453.168,200.814c-12.161,0-23.115-1.241-33.403-3.736
							c-16.007-3.882-31.17-11.121-45.834-18.121c-5.857-2.796-11.913-5.687-17.93-8.319c-26.626-11.647-47.629-15.04-66.095-10.682
							c-5.021,1.185-10.039,3.014-14.893,4.782c-8.614,3.139-17.509,6.386-26.84,6.197c-7.868-0.159-15.417-2.765-22.717-5.285
							c-4.257-1.47-8.66-2.99-13.057-3.997c-12.472-2.855-25.859-1.699-37.694,3.253c-5.809,2.431-11.372,5.806-16.751,9.07
							c-7.451,4.521-15.156,9.197-23.701,11.493c-14.518,3.9-29.838,0.621-44.653-2.551c-17.23-3.689-33.505-7.174-48.643-0.371
							l-0.819-1.824c15.735-7.071,33.093-3.355,49.881,0.24c14.584,3.123,29.663,6.35,43.716,2.575
							c8.27-2.222,15.851-6.822,23.182-11.271c5.442-3.302,11.069-6.717,17.016-9.205c12.219-5.114,26.037-6.306,38.913-3.358
							c4.502,1.03,8.956,2.568,13.263,4.055c7.154,2.47,14.551,5.024,22.105,5.176c8.954,0.181,17.673-3.001,26.115-6.076
							c4.908-1.788,9.983-3.637,15.118-4.849c24.84-5.866,50.339,3.352,67.356,10.796c6.047,2.645,12.119,5.543,17.99,8.346
							c14.572,6.956,29.64,14.15,45.444,17.983c18.023,4.37,38.171,4.834,63.407,1.459l0.265,1.983
							C472.771,200.066,462.605,200.814,453.168,200.814z"/>
					</g>
					<g>
						<path style="fill:#F9FBFC;" d="M118.834,135.999c-6.65,0-13.237-0.637-19.422-1.235l0.192-1.99
							c12.514,1.211,26.699,2.584,39.465-1.595c8.067-2.638,15.421-7.435,22.532-12.074c4.127-2.693,8.396-5.477,12.795-7.843
							c18.579-9.989,40.94-12.89,61.347-7.954c6.681,1.616,13.272,4.06,19.646,6.424c10.36,3.842,21.073,7.814,32.123,8.139
							c5.457,0.156,11.013-0.578,16.386-1.293c5.065-0.673,10.281-1.376,15.521-1.331c9.489,0.067,18.818,2.543,27.839,4.938
							c2.062,0.547,4.121,1.094,6.181,1.612c24.141,6.076,48.962,8.372,73.763,6.824l0.125,1.996
							c-25.012,1.562-50.035-0.753-74.376-6.881c-2.068-0.521-4.136-1.07-6.206-1.619c-8.901-2.362-18.105-4.806-27.341-4.871
							c-5.066-0.028-10.245,0.65-15.243,1.314c-5.453,0.724-11.096,1.475-16.708,1.309c-11.378-0.334-22.248-4.364-32.76-8.262
							c-6.32-2.344-12.855-4.767-19.42-6.355c-19.936-4.822-41.779-1.988-59.93,7.771c-4.325,2.325-8.557,5.086-12.65,7.756
							c-7.22,4.71-14.686,9.581-23.003,12.301C132.933,135.291,125.848,135.999,118.834,135.999z"/>
					</g>
					<g>
						<path style="fill:#F9FBFC;" d="M417.719,242.568c-11.446,0-22.73-1.19-33.578-3.593c-15.165-3.361-29.934-9.1-44.216-14.651
							c-16.099-6.257-32.747-12.727-49.905-15.74c-19.296-3.387-39.48-2.384-58.37,2.902c-7.555,2.115-15.139,4.964-22.474,7.719
							c-15.438,5.799-31.401,11.789-48.06,11.317c-7.558-0.217-15.073-1.784-22.34-3.299c-7.418-1.546-15.087-3.145-22.711-3.272
							c-10.896-0.199-21.75,2.626-32.246,5.341c-6.843,1.77-13.919,3.6-21.012,4.617c-18.34,2.63-40.412-2.406-48.369-19.578
							l1.814-0.841c7.524,16.24,28.662,20.962,46.27,18.439c6.984-1.001,14.005-2.817,20.795-4.574
							c10.625-2.748,21.611-5.591,32.78-5.404c7.814,0.131,15.578,1.749,23.086,3.314c7.182,1.497,14.609,3.045,21.99,3.258
							c16.27,0.469,32.042-5.459,47.299-11.19c7.374-2.771,14.999-5.635,22.638-7.773c19.176-5.367,39.666-6.386,59.255-2.946
							c17.353,3.047,34.094,9.553,50.284,15.845c14.212,5.523,28.908,11.235,43.924,14.562c30.257,6.704,63.988,3.841,94.979-8.06
							l0.717,1.867C460.019,238.607,438.601,242.568,417.719,242.568z"/>
					</g>
					<g>
						<path style="fill:#F9FBFC;" d="M409.861,255.776c-17.985,0-35.965-2.624-53.205-7.891
							c-10.139-3.097-20.178-7.137-29.886-11.044c-16.619-6.688-33.803-13.604-51.66-15.791
							c-19.117-2.344-40.321,0.604-63.026,8.757c-3.116,1.119-6.295,2.342-9.369,3.524c-13.106,5.042-26.662,10.253-40.845,9.71
							c-9.483-0.364-18.703-3.312-27.619-6.164c-10.534-3.369-20.482-6.554-30.959-5.93c-9.256,0.549-17.796,4.009-26.838,7.673
							c-6.217,2.519-12.646,5.124-19.278,6.656c-21.432,4.951-45.332-2.161-60.882-18.12l2.148-2.094
							c14.834,15.223,37.621,22.009,58.059,17.291c6.4-1.479,12.718-4.038,18.827-6.514c8.868-3.593,18.039-7.309,27.787-7.887
							c11.04-0.651,21.717,2.763,32.05,6.068c8.724,2.79,17.746,5.675,26.82,6.023c13.576,0.53,26.831-4.58,39.653-9.513
							c3.089-1.188,6.284-2.417,9.432-3.547c23.149-8.313,44.816-11.314,64.405-8.912c18.247,2.235,35.617,9.225,52.415,15.985
							c9.649,3.883,19.627,7.899,29.643,10.958c36.68,11.205,76.781,10.25,112.918-2.691l1.012,2.824
							C451.706,252.225,430.781,255.776,409.861,255.776z"/>
					</g>
					<g>
						<path style="fill:#F9FBFC;" d="M407.058,291.347c-6.018,0-12.021-0.419-17.945-1.267
							c-15.447-2.212-30.515-7.257-45.086-12.135c-12.691-4.249-25.813-8.643-39.095-11.127
							c-38.069-7.12-77.179,1.311-110.414,10.495l-0.373,0.103c-14.526,4.015-30.992,8.568-45.578,2.844
							c-3.688-1.447-7.121-3.511-10.441-5.506c-1.83-1.1-3.722-2.236-5.62-3.247c-16.106-8.573-35.707-9.389-52.435-2.182
							c-3.883,1.674-7.693,3.8-11.378,5.856c-6.219,3.472-12.65,7.061-19.72,8.652c-16.577,3.734-33.313-4.089-46.04-11.319
							l0.988-1.738c12.413,7.053,28.704,14.688,44.612,11.106c6.787-1.528,13.089-5.046,19.184-8.447
							c3.729-2.081,7.585-4.233,11.563-5.946c17.278-7.446,37.528-6.604,54.165,2.252c1.944,1.035,3.859,2.186,5.711,3.299
							c3.25,1.952,6.61,3.972,10.142,5.358c13.968,5.481,29.395,1.215,44.314-2.91l0.373-0.104
							c33.457-9.246,72.846-17.724,111.316-10.534c13.417,2.51,26.606,6.926,39.361,11.197c14.487,4.85,29.467,9.865,44.734,12.051
							c24.353,3.487,50.078-0.393,72.436-10.921l0.853,1.809C445.414,287.121,426.166,291.347,407.058,291.347z"/>
					</g>
					<g>
						<path style="fill:#F9FBFC;" d="M19.787,333.656c-11.011,0-23.005-3.378-30.21-13.143l1.609-1.188
							c9.233,12.512,27.003,13.852,39.417,11.203c8.669-1.853,17.05-5.415,25.156-8.859c5.322-2.262,10.825-4.601,16.398-6.457
							c16.755-5.579,34.8-7,52.185-4.108c7.098,1.181,14.201,3.093,21.071,4.942c12.099,3.257,24.611,6.625,37.164,5.947
							c13.389-0.723,26.199-6.008,38.587-11.12c7.903-3.261,16.076-6.633,24.415-8.852c31.692-8.428,64.393-0.279,96.015,7.605
							c15.428,3.847,31.381,7.823,47.069,9.85c31.209,4.037,63.37,0.425,93.003-10.438l0.689,1.877
							c-29.934,10.975-62.419,14.62-93.949,10.545c-15.803-2.043-31.813-6.034-47.296-9.895
							c-31.375-7.822-63.819-15.909-95.017-7.611c-8.212,2.185-16.323,5.531-24.166,8.768
							c-12.543,5.175-25.513,10.526-39.242,11.269c-12.869,0.693-25.54-2.717-37.791-6.015c-6.823-1.837-13.878-3.735-20.879-4.9
							c-17.064-2.837-34.777-1.444-51.225,4.034c-5.498,1.831-10.963,4.153-16.248,6.399c-8.193,3.481-16.664,7.081-25.521,8.974
							C27.582,333.22,23.748,333.656,19.787,333.656z"/>
					</g>
					<g>
						<path style="fill:#F9FBFC;" d="M10.462,350.987c-6.49,0-12.946-0.981-19.207-3.369l0.713-1.869
							c18.816,7.177,39.715,1.134,57.676-5.727c2.28-0.871,4.565-1.765,6.857-2.661c16.508-6.46,33.575-13.141,51.317-12.003
							c7.492,0.48,14.868,2.37,22.001,4.198c6.196,1.589,12.604,3.23,19.008,3.919c18.761,2.011,37.344-4.012,55.317-9.84
							c8.864-2.874,18.03-5.847,27.176-7.857c35.939-7.897,73.164-1.378,109.163,4.927c5.702,0.999,11.598,2.032,17.371,2.985
							c40.026,6.61,86.017,10.461,123.631-11.095l0.994,1.734c-38.157,21.87-84.575,18.004-124.951,11.333
							c-5.782-0.954-11.683-1.988-17.389-2.988c-35.81-6.272-72.837-12.759-108.389-4.943c-9.051,1.989-18.169,4.946-26.988,7.806
							c-18.174,5.894-36.963,11.99-56.148,9.926c-6.547-0.703-13.026-2.364-19.291-3.97c-7.044-1.805-14.328-3.672-21.633-4.14
							c-17.296-1.106-34.155,5.488-50.461,11.869c-2.296,0.898-4.586,1.795-6.872,2.668
							C37.94,346.633,24.129,350.987,10.462,350.987z"/>
					</g>
					<g>
						<path style="fill:#F9FBFC;" d="M127.814,400.346c-18.123,0.001-35.876-6.004-53.126-11.837
							c-5.665-1.916-11.523-3.897-17.27-5.619c-18.851-5.647-53.672-12.029-75.068,8.702l-2.088-2.154
							c22.495-21.798,58.535-15.26,78.017-9.421c5.796,1.736,11.68,3.726,17.37,5.65c19.657,6.647,39.981,13.521,60.43,11.226
							c14.916-1.676,29.023-8.191,42.666-14.493c8.946-4.132,18.198-8.405,27.714-11.361c34.263-10.645,70.402-4.161,105.35,2.109
							c17.511,3.142,35.618,6.391,53.31,7.464c45.36,2.746,91.717-9.126,130.53-33.441l1.593,2.543
							c-39.339,24.644-86.325,36.688-132.304,33.893c-17.868-1.083-36.063-4.348-53.658-7.505
							c-34.593-6.206-70.364-12.624-103.93-2.197c-9.327,2.898-18.487,7.128-27.346,11.22c-13.859,6.401-28.19,13.022-43.588,14.75
							C133.54,400.196,130.671,400.346,127.814,400.346z"/>
					</g>
				</g>
			</g>
			<g>
				<rect x="28.252" y="229.338" style="fill:#C7DCEA;" width="221.105" height="187.05"/>
				<rect x="45.525" y="244.975" style="fill:#D9E9F6;" width="186.558" height="171.413"/>
				<rect x="40.266" y="326.519" style="fill:#C7DCEA;" width="198.949" height="12.886"/>
				<g>
					<rect x="213.518" y="270.179" style="fill:#C7DCEA;" width="10.462" height="56.34"/>
					<rect x="215.308" y="278.956" style="fill:#D9E9F6;" width="6.881" height="27.151"/>
					<g>
						<rect x="204.065" y="253.657" style="fill:#AFCDDD;" width="9.452" height="72.862"/>
						<rect x="205.683" y="272.531" style="fill:#D9E9F6;" width="6.217" height="35.114"/>
						<rect x="205.683" y="313.571" style="fill:#D9E9F6;" width="6.217" height="8.863"/>
					</g>
					<rect x="189.808" y="258.545" style="fill:#C7DCEA;" width="14.257" height="67.974"/>
					<rect x="192.248" y="270.375" style="fill:#AFCDDD;" width="9.377" height="32.758"/>
					<rect x="192.248" y="314.439" style="fill:#AFCDDD;" width="9.377" height="8.269"/>
					<rect x="189.808" y="308.824" style="fill:#AFCDDD;" width="14.257" height="1.504"/>
					<rect x="189.808" y="305.688" style="fill:#AFCDDD;" width="14.257" height="1.504"/>
					<g>
						<rect x="223.98" y="264.057" style="fill:#AFCDDD;" width="8.103" height="62.462"/>
						<rect x="223.98" y="318.416" style="fill:#C7DCEA;" width="8.103" height="3.293"/>
						<rect x="225.367" y="271.474" style="fill:#C7DCEA;" width="5.329" height="30.102"/>
						<rect x="225.367" y="306.656" style="fill:#C7DCEA;" width="5.329" height="7.598"/>
					</g>
					<path style="fill:#D9E9F6;" d="M222.358,317.18c0,1.993-1.616,3.609-3.609,3.609s-3.61-1.616-3.61-3.609s1.616-3.61,3.61-3.61
						S222.358,315.187,222.358,317.18z"/>
				</g>
			</g>
		</g>
	</g>
</g>
<g id="OBJECTS">
	<g>
		<g>
			<path style="fill:#FC7808;" d="M342.061,162.979c-7.802-1.399-19.501,9.102-14.638,36.891s15.052,61.366,27.325,61.135
				c12.273-0.232,11.347-25.704,7.873-45.851C359.147,195.006,357.162,165.687,342.061,162.979z"/>
			<path style="fill:#FFC8AF;" d="M338.298,158.911l-1.027-3.288c2.826-0.325,5.548-0.993,8.134-1.952
				c1.764,4.555,4.144,7.963,7.843,9.265c1.832,0.651,4.093,1.25,6.627,1.712c-1.661,3.733-11.559,25.362-18.289,22.81
				c-7.227-2.757-0.925-19.522-0.685-20.207c0.017-0.017,0.017-0.017,0.017-0.017L338.298,158.911z"/>
			<path style="fill:#FFC8AF;" d="M303.523,263.133c-5.796-0.248-11.523-0.546-17.312-0.882c-8.173-0.474-15.851,0.284-23.818,2.038
				c-5.632,1.24-12.397-0.659-16.6-4.596c-0.535-0.503-1.038-1.038-1.489-1.615c-0.021-0.031-0.042-0.052-0.063-0.084
				c-0.073-0.084-0.136-0.178-0.199-0.262c-4.478-5.831-5.107-9.344-3.156-11.294c1.982-1.982,4.992,3.01,11.976,1.164
				c3.44-0.912,9.477-4.109,9.477-4.109c-1.285-2.57-3.133-5.547-3.799-7.717c-0.504-1.642-1.008-3.426-0.42-5.04
				c0.058-0.16,0.128-0.319,0.246-0.442c0.142-0.149,0.339-0.231,0.536-0.289c1.768-0.52,3.181,0.923,4.215,2.152
				c1.343,1.597,2.546,3.376,4.056,4.819c1.454,1.39,3.471,1.87,5.259,2.675c1.855,0.835,3.569,1.942,4.848,3.548
				c0.462,0.58,0.864,1.209,1.193,1.874l6.051-0.86l15.552-2.202c0,0,0,0.031,0.01,0.094L303.523,263.133z"/>
			<path style="fill:#FC7808;" d="M297.781,241.012l4.94,25.318c0,0,42.104-2.669,53.163-5.426
				c11.059-2.757,11.722-27.457-10.3-26.377C323.563,235.608,297.781,241.012,297.781,241.012z"/>
			<path style="fill:#232770;" d="M359.425,259.012l-2.516-9.047c0,0-35.585-10.421-25.859-4.631
				c6.892,4.102,12.811,12.54,15.678,17.113c3.836-0.499,7.057-1.019,9.156-1.543C357.226,260.57,358.411,259.908,359.425,259.012z"
				/>
			<path style="fill:#232770;" d="M332.99,155.897c1.456,0,2.877-0.086,4.281-0.274l5.407,5.082
				c-0.993,1.147-12.083,5.124-21.761,9.885l-0.137,0.086c-3.99-6.148-10.874-16.799-14.453-26.749
				C312.851,151.273,322.389,155.897,332.99,155.897z"/>
			<path style="fill:#232770;" d="M337.271,155.623c0,0,4.507-1.148,7.439-2.404l-3.808,14.032L337.271,155.623z"/>
			<path style="fill:#FFC8AF;" d="M345.405,153.671c-2.586,0.959-5.309,1.627-8.134,1.952c-1.404,0.188-2.826,0.274-4.281,0.274
				c-9.247,0-17.69-3.528-24.026-9.299c-0.925-0.839-1.815-1.73-2.637-2.671c-0.685-1.918-1.25-3.802-1.661-5.617
				c-3.511-15.909,11.902-35.02,11.902-35.02s11.2,8.374,18.221,18.358c0.017,0,0.017,0.017,0.017,0.017
				c2.346,3.339,4.213,6.833,5.052,10.275C341.758,139.731,343.059,147.694,345.405,153.671z"/>
			<path style="fill:#5E60F4;" d="M479.749,409.823c-6.285,0.993-14.231,1.627-22.622,2.021l-78.534-0.257l-29.746-0.103
				c0,0,0.034-0.171,0.086-0.514c0.685-4.144,5.377-32.212,7.603-47.264c46.614,7.826,107.115-12.056,112.715-13.957
				C475.69,373.433,478.927,401.963,479.749,409.823z"/>
			<path style="fill:#FB5507;" d="M460.295,325.929c-8.22-14.676-12.433-23.872-15.395-33.599
				c-3.944-10.889-7.868-32.072-7.868-32.072l-83.613,9.331c0,0,4.69,24.152,5.899,32.883c3.837,28.562-0.299,43.586-2.218,57.313
				c-0.171,1.165-0.359,2.483-0.565,3.922c46.614,7.826,107.116-12.056,112.715-13.957
				C466.751,340.588,463.789,332.162,460.295,325.929z"/>
			<g>
				<path style="fill:#FC7808;" d="M380.289,357.226c-4.735,0-9.639-0.105-14.739-0.314c-0.276-0.012-0.49-0.244-0.479-0.521
					c0.011-0.275,0.234-0.495,0.52-0.479c31.992,1.315,56.273-1.448,78.734-8.951c0.262-0.088,0.545,0.055,0.632,0.316
					c0.087,0.262-0.054,0.545-0.316,0.633C425.647,354.253,405.368,357.226,380.289,357.226z"/>
			</g>
			<path style="fill:#FB5507;" d="M398.732,261.248l-20.19,3.031l0.274,1.712l-25.396,3.596c-2.586-9.35-5.977-13.734-13.066-17.81
				c-2.671-1.541-5.069-2.791-7.21-3.939c-7.483-4.024-11.902-6.764-14.899-15.892c-3.63-11.046,19.437-58.892,22.074-64.321
				c0.017,0,0.017-0.017,0.017-0.017h0.017c0.291-0.188,0.479-0.325,0.548-0.36c-0.24,0.685-5.244,17.795-1.038,19.052
				c10.137,3.03,18.351-17.922,20.012-21.655c5.069,0.942,11.2,1.37,17.09,0.582c-7.62,10.652,9.568,45.509,10.356,47.376
				c7.826,18.306,16.462,47.889,16.462,47.889L398.732,261.248z"/>
			<path style="fill:#FFC8AF;" d="M383.85,289.513c-6.616-0.284-22.338,0.768-28.946,0.384c-1.461-0.085-2.923-0.136-4.386-0.152
				c-6.682-0.075-13.349,0.602-19.905,1.877c-1.499,0.291-2.884,0.8-4.397,1.041c-1.588,0.254-3.196,0.376-4.804,0.369
				c-3.183-0.014-8.195-0.523-11.21-1.548c-0.599-0.204-1.227-0.453-1.593-0.969c-0.132-0.186-0.225-0.422-0.166-0.642
				c0.064-0.236,0.282-0.394,0.497-0.511c1.141-0.619,2.508-0.598,3.806-0.56c-2.113-0.472-4.164-1.215-6.09-2.205
				c-0.937-0.482-2.189-1.487-2.423-2.583c-0.104-0.489,0.093-1.077,0.557-1.264c-1.493-0.868-4.226-2.715-3.723-4.76
				c0.201-0.818,0.887-1.497,1.707-1.691c-0.552-0.598-0.715-1.525-0.402-2.275c0.111-0.265,0.279-0.51,0.508-0.683
				c0.467-0.352,1.101-0.352,1.686-0.338c1.775,0.044,3.463,0.413,5.225,0.613c1.715,0.194,5.493-0.177,7.158-0.617
				c3.926-1.041,10.701-4.514,10.701-4.514c-1.467-2.933-3.576-6.332-4.337-8.809c-0.576-1.874-1.15-3.911-0.48-5.754
				c0.066-0.182,0.147-0.364,0.281-0.504c0.162-0.17,0.387-0.263,0.612-0.33c2.018-0.593,3.631,1.054,4.811,2.457
				c1.533,1.823,2.906,3.853,4.63,5.5c1.66,1.586,3.962,2.135,6.003,3.054c2.117,0.953,4.074,2.217,5.534,4.05
				c0.528,0.663,0.986,1.38,1.361,2.14l6.907-0.982l26.936-3.905c0,0,0,0.036,0.012,0.108L383.85,289.513z"/>
			<path style="fill:#E8A289;" d="M322.757,278.271c-1.672,0.534-3.362,0.992-5.072,1.366c-0.853,0.199-1.713,0.358-2.578,0.518
				c-0.851,0.138-1.76,0.307-2.703,0.247c-1.819-0.143-3.54-0.606-5.196-1.25c-1.627-0.658-3.292-1.483-4.432-2.854
				c1.392,1.069,3.062,1.591,4.687,2.117c1.643,0.474,3.335,0.877,4.999,0.99c0.805,0.073,1.629-0.075,2.501-0.183l2.583-0.35
				C319.273,278.628,321.009,278.426,322.757,278.271z"/>
			<path style="fill:#E8A289;" d="M324.523,283.402c-1.613,0.542-3.248,1.004-4.903,1.381c-1.659,0.383-3.311,0.709-5.044,0.888
				c-1.824,0.075-3.489-0.299-5.147-0.758c-1.637-0.478-3.278-1.115-4.637-2.162c1.55,0.697,3.194,1.046,4.825,1.394
				c0.82,0.153,1.639,0.309,2.462,0.401c0.815,0.111,1.651,0.18,2.419,0.134c1.634-0.149,3.314-0.426,4.981-0.65
				C321.151,283.787,322.831,283.575,324.523,283.402z"/>
			<path style="fill:#E8A289;" d="M326.276,287.804c-1.399,0.692-2.856,1.245-4.355,1.675c-0.751,0.209-1.512,0.398-2.293,0.523
				c-0.78,0.129-1.576,0.233-2.435,0.125c-1.598-0.243-3.062-0.698-4.549-1.156c-1.475-0.477-2.93-1.008-4.361-1.61
				c1.525,0.289,3.036,0.608,4.542,0.933c1.498,0.318,3.02,0.681,4.48,0.871c1.385,0.087,2.932-0.249,4.419-0.514
				C323.227,288.363,324.739,288.064,326.276,287.804z"/>
			<path style="fill:#FC7808;" d="M443.542,276.13c-0.953,3.405-4.127,6.116-8.513,8.268c-15.91,7.819-53.309,8.255-53.309,8.255
				l-0.286-1.771l-0.64-3.882l-3.708-22.761l25.239-5.162c0,0-15.768-41.746-21.993-56.307
				c-4.945-11.619-10.693-28.755-3.746-38.467v-0.014c3.841-0.518,7.56-1.703,10.584-3.814c1.675-1.171,3.228-2.193,4.618-3.174
				c14.112,0.245,23.987,16.591,28.877,28.046c2.534,5.952,7.369,17.721,11.551,30.348
				C437.404,231.387,446.007,267.371,443.542,276.13z"/>
			<g>
				<path style="fill:#FC7808;" d="M455.124,350.359c-0.207,0-0.4-0.129-0.472-0.336c-2.856-8.217-7.478-15.479-11.949-22.504
					c-3.329-5.231-6.771-10.641-9.497-16.444c-2.054-4.376-3.98-8.893-5.843-13.26c-1.387-3.253-2.821-6.616-4.296-9.892
					c-0.113-0.252-0.001-0.548,0.251-0.661c0.251-0.115,0.547-0.001,0.661,0.251c1.479,3.285,2.915,6.653,4.304,9.91
					c1.859,4.359,3.781,8.867,5.828,13.227c2.698,5.746,6.123,11.129,9.435,16.333c4.501,7.073,9.155,14.386,12.049,22.713
					c0.091,0.261-0.047,0.546-0.308,0.637C455.234,350.351,455.179,350.359,455.124,350.359z"/>
			</g>
			<path style="fill:#FFC8AF;" d="M306.326,143.927c3.728,6.271,17.159,17.965,21.559,18.313c4.4,0.347,17.52-8.569,17.52-8.569
				l-25.625-24.077L306.326,143.927z"/>
			<path style="fill:#232770;" d="M359.863,164.715c-0.381-0.072-0.76-0.148-1.137-0.229c-2.62-0.557-5.241-1.309-7.517-2.721
				c-3.071-1.904-4.542-4.837-5.803-8.095c-2.346-5.976-3.647-13.94-5.548-21.731c-3.356-13.734-23.29-28.65-23.29-28.65
				s-15.412,19.111-11.902,35.02c0.411,1.815,0.976,3.699,1.661,5.617c3.579,9.949,10.463,20.601,14.453,26.749
				c0.572,0.888,1.147,1.773,1.712,2.665c0.451,0.712,0.844,1.545,0.072,2.23c-0.393,0.349-0.919,0.497-1.426,0.635
				c-0.442,0.12-0.884,0.24-1.326,0.36c-0.435,0.118-0.872,0.237-1.319,0.303c-0.44,0.065-0.886,0.079-1.33,0.09
				c-2.978,0.068-5.98-0.029-8.892-0.657c-1.915-0.412-3.818-1.344-5.483-2.385c-2.538-1.587-4.64-3.766-6.225-6.299
				c-1.663-2.659-2.765-5.635-3.548-8.66c-0.881-3.401-1.377-6.893-1.723-10.384c-0.378-3.814-0.572-7.643-0.749-11.471
				c-0.183-3.955-0.345-7.91-0.622-11.86c-1.239-17.666,6.167-37.553,21.488-47.561c7.818-5.107,18.682-5.096,26.588-0.189
				c1.779-1.901,4.674-2.223,7.27-2.019c6.664,0.523,12.942,3.722,17.913,8.191c6.429,5.781,9.877,13.41,14.544,20.482
				c5.573,8.446,14.133,13.558,20.681,21.087c6.035,6.939,8.284,15.492,4.252,24.021
				C395.752,163.864,374.091,167.412,359.863,164.715z"/>
			<polygon style="fill:#232770;" points="382.458,207.88 396.546,260.258 402.324,259.076 			"/>
			<path style="fill:#232770;" d="M471.106,357.059c-0.586-2.468-1.203-4.914-1.855-7.31c-4.192,1.423-39.15,12.921-76.017,15.33
				C417.044,366.127,460.543,358.895,471.106,357.059z"/>
			<polygon style="fill:#232770;" points="381.199,289.464 378.211,289.493 379.034,276.203 			"/>
			<polygon style="fill:#232770;" points="302.085,263.07 299.933,252.037 300.249,262.987 			"/>
			<polygon style="fill:#232770;" points="268.295,254.656 246.317,260.162 244.889,258.773 			"/>
			<path style="fill:#E8A289;" d="M264.322,246.451c0,0,3.085,4.171,5.903,4.904l-2.893,1.31L264.322,246.451z"/>
			<g>
				<path style="fill:#FB5507;" d="M389.946,289.992c-0.234,0-0.442-0.165-0.49-0.402l-4.94-24.844
					c-0.054-0.271,0.122-0.534,0.393-0.588c0.272-0.06,0.534,0.122,0.588,0.393l4.94,24.844c0.054,0.271-0.122,0.534-0.393,0.588
					C390.011,289.989,389.978,289.992,389.946,289.992z"/>
			</g>
			<g>
				<path style="fill:#FB5507;" d="M308.742,262.713c-0.229,0-0.435-0.158-0.487-0.391l-4.597-20.429
					c-0.06-0.27,0.108-0.537,0.378-0.598c0.271-0.06,0.537,0.109,0.598,0.378l4.597,20.43c0.06,0.269-0.108,0.536-0.378,0.598
					C308.815,262.709,308.778,262.713,308.742,262.713z"/>
			</g>
			<g>
				<path style="fill:#FC7808;" d="M342.042,192.173c-1.125,0-2.277-0.128-3.456-0.383c-0.27-0.059-0.441-0.325-0.383-0.595
					c0.059-0.27,0.328-0.439,0.595-0.383c10.107,2.195,18.228-5.79,24.134-23.718c0.086-0.262,0.37-0.405,0.631-0.319
					c0.263,0.086,0.405,0.369,0.319,0.631C358.46,183.864,351.125,192.173,342.042,192.173z"/>
			</g>
			<path style="fill:#232770;" d="M322.684,175.984c6.093-2.453,9.273-9.246,14.792-12.808c0.511-0.33,1.121-0.817,0.951-1.401
				c-0.193-0.662-1.128-0.647-1.8-0.489c-3.726,0.871-7.452,1.742-11.178,2.614c-4.953,1.158-10.086,2.402-14.057,5.58
				c-0.957,0.766-1.859,1.678-2.268,2.834C306.93,178.529,319.754,177.164,322.684,175.984z"/>
			<g>
				<polygon style="fill:#F0F5F7;" points="210.089,218.539 247.787,212.88 267.926,254.468 225.497,261.93 				"/>
				<path style="fill:#F9FBFC;" d="M247.643,213.155l19.914,41.123l-41.895,7.369l-15.235-42.906L247.643,213.155 M247.932,212.606
					l-38.18,5.731l15.579,43.876l42.963-7.557L247.932,212.606L247.932,212.606z"/>
			</g>
		</g>
		<g>
			<g>
				<path style="fill:#2270E0;" d="M378.676,369.357c0,0-4.461-5.658,2.394-17.41c6.855-11.752,21.001-14.581,21.654-13.058
					c0.653,1.523-7.182,4.461-9.358,13.493c-2.176,9.032-2.466,14.037-5.187,16.757C385.459,371.86,381.759,372.948,378.676,369.357
					z"/>
				<g>
					<path style="fill:#3887FE;" d="M380.49,367.612c-0.039,0-0.078-0.005-0.116-0.016c-0.232-0.064-0.368-0.303-0.304-0.536
						c0.199-0.718,4.978-17.677,13.816-24.155c0.193-0.143,0.466-0.101,0.608,0.094c0.142,0.194,0.1,0.466-0.094,0.608
						c-8.593,6.298-13.443,23.512-13.491,23.685C380.855,367.485,380.68,367.612,380.49,367.612z"/>
				</g>
			</g>
			<g>
				<path style="fill:#2270E0;" d="M373.991,368.916c0,0,2.53-5.324-5.073-13.452c-7.603-8.128-19.4-7.814-19.644-6.48
					c-0.244,1.334,6.539,2.253,9.916,9.062c3.377,6.808,4.518,10.748,7.182,12.423S372.184,372.341,373.991,368.916z"/>
				<g>
					<path style="fill:#3887FE;" d="M370.036,369.726c-0.158-0.091-0.233-0.321-0.478-1.074
						c-2.761-8.479-6.881-14.107-12.246-16.736c-0.202-0.096-0.281-0.339-0.184-0.538c0.097-0.199,0.338-0.281,0.538-0.184
						c5.575,2.721,9.826,8.515,12.657,17.209c0.098,0.302,0.199,0.612,0.245,0.722c0.075,0.09,0.109,0.212,0.084,0.335
						c-0.044,0.217-0.256,0.358-0.473,0.315C370.122,369.764,370.077,369.75,370.036,369.726z"/>
				</g>
			</g>
			<g>
				<path style="fill:#3887FE;" d="M382.431,368.916c0,0-2.53-5.324,5.073-13.452c7.603-8.128,19.4-7.814,19.644-6.48
					c0.244,1.334-6.539,2.253-9.916,9.062c-3.377,6.808-4.518,10.748-7.182,12.423C387.386,372.145,384.237,372.341,382.431,368.916
					z"/>
				<g>
					<path style="fill:#2270E0;" d="M386.386,369.726c0.158-0.091,0.233-0.321,0.478-1.074c2.761-8.479,6.881-14.107,12.246-16.736
						c0.202-0.096,0.281-0.339,0.184-0.538c-0.098-0.199-0.338-0.281-0.538-0.184c-5.575,2.721-9.826,8.515-12.657,17.209
						c-0.098,0.302-0.199,0.612-0.245,0.722c-0.075,0.09-0.109,0.212-0.084,0.335c0.044,0.217,0.256,0.358,0.473,0.315
						C386.299,369.764,386.345,369.75,386.386,369.726z"/>
				</g>
			</g>
			<g>
				<path style="fill:#3887FE;" d="M379.316,371.575c0,0,8.665-6.308,2.74-20.242c-5.925-13.934-24.095-18.351-25.029-16.76
					c-0.934,1.591,6.219,6.322,7.359,16.598s1.845,15.451,4.468,18.835C371.477,373.389,375.409,375.108,379.316,371.575z"/>
				<g>
					<path style="fill:#2270E0;" d="M374.964,369.893c-0.177-0.034-0.324-0.195-0.348-0.382c-0.01-0.074-0.005-0.116,0.037-0.45
						c0.708-5.639,1.92-24.564-12.223-31.353c-0.206-0.099-0.293-0.346-0.194-0.552c0.099-0.206,0.347-0.292,0.552-0.194
						c14.642,7.029,13.412,26.425,12.686,32.202c-0.019,0.155-0.033,0.255-0.035,0.297c0.03,0.226-0.131,0.405-0.358,0.435
						C375.042,369.901,375.002,369.9,374.964,369.893z"/>
				</g>
			</g>
			<path style="fill:#A5B7C6;" d="M369.119,401.025h16.261c4.025,0,7.288-3.263,7.288-7.288v-23.549h-30.836v23.549
				C361.831,397.763,365.094,401.025,369.119,401.025z"/>
		</g>
		<g>
			<path style="fill:#9962EF;" d="M173.656,253.43c10.086,9.118,14.813,24.802,20.146,37.847
				c6.286,15.377,12.202,31.016,18.21,46.566c1.902,4.923,3.827,9.939,4.433,15.249c0.709,6.211-0.809,14.291-5.96,17.044
				c-5.765,3.081-12.531,2.99-18.396-0.6c-11.233-6.877-17.345-20.327-21.782-33.564c-3.578-10.674-7.612-21.188-11.435-31.758
				c-3.316-9.17-6.676-18.534-7.442-28.356c-0.788-10.107,3.065-27.727,13.991-26.689c2.957,0.281,5.74,2.024,8.145,4.181
				C173.596,253.376,173.626,253.403,173.656,253.43z"/>
			<path style="fill:#232770;" d="M165.823,314.497l-1.223,5.335c1.961,5.357,3.893,10.728,5.707,16.139
				c0.57,1.7,1.169,3.402,1.801,5.095c2.035-7.171,7.922-28.831,8.305-40.695c0.463-14.357-8.994-26.631-8.994-26.631
				L165.823,314.497z"/>
			<path style="fill:#9962EF;" d="M185.901,345.141c5.111-3.676,13.372-6.641,19.351-5.481c10.025,1.946,19.268,7.921,28.16,12.683
				c11.036,5.91,21.405,14.394,31.269,22.123c0.34,0.266,0.688,0.542,0.902,0.916c0.314,0.547,0.297,1.217,0.241,1.845
				c-0.516,5.782-3.745,11.264-8.551,14.519c-1.199,0.812-2.827,1.77-4.321,1.497c-1.77-0.324-3.578-1.083-5.323-1.564
				c-0.879-0.242-1.778-0.482-2.687-0.428c-0.716,0.042-1.408,0.264-2.109,0.414c-3.63,0.777-7.372-0.379-10.857-1.656
				c-5.562-2.037-10.997-4.417-16.266-7.121c-2.661-1.366-5.28-2.814-7.851-4.343c-2.404-1.43-5.019-2.552-7.462-3.981
				c-2-1.169-3.97-2.39-5.907-3.661c-3.082-2.024-6.118-4.211-8.457-7.061c-2.85-3.472-5.589-9.359-3.956-13.849
				C182.809,347.977,184.18,346.379,185.901,345.141z"/>
			<path style="fill:#8338EA;" d="M160.662,350.486c3.476-8.802,6.919-17.656,9.864-25.602c4.35-11.713,7.638-21.44,8.46-26.047
				c3.014-16.919-9.384-41.545-9.384-41.545c-3.785,1.336-12.056-5.137-12.056-5.137l-5.583,8.254
				c-21.885,4.367-31.39-18.084-30.602-21.098c0.188-0.719,0.976-2.26,2.072-4.195l-0.171-0.103
				c-22.416-0.342-36.578,13.803-39.832,17.416c7.603-6.096,16.149-8.1,26.766-3.853c24.557,9.83-0.445,49.816-5.805,60.313
				c-2.052,4.018-4.692,8.722-7.171,13c-12.357,2.115-24.343,6.387-35.223,12.615l-5.337,6.053
				c-4.516,4.131-6.831,10.278-7.271,16.382c-0.44,6.105,0.839,12.211,2.599,18.073c0.605,2.014,1.282,4.01,2.061,5.962
				c-10.491-2.732-15.131-6.629-17.678-13.04c-5.942,15.875-13.323,35.14-13.323,35.14h115.079c0,0,4.658-8.665,8.922-19.008
				L160.662,350.486z"/>
			<path style="fill:#232770;" d="M128.402,384.662l-78.73-19.991c0.458,3.497,1.3,6.96,2.315,10.342
				c0.605,2.014,1.282,4.01,2.061,5.962c-10.491-2.732-15.131-6.629-17.678-13.04c-1.419,3.792-2.92,7.775-4.383,11.645
				c2.288,1.748,9.065,4.759,29.167,6.845C91.026,389.525,128.402,384.662,128.402,384.662z"/>
			<path style="fill:#FFC8AF;" d="M217.01,368.467c-0.004,0.047-0.01,0.093-0.019,0.139c-0.064,0.322-0.308,0.632-0.635,0.663
				c0.021,0.517-0.03,1.061-0.313,1.494c-0.283,0.433-0.853,0.712-1.335,0.522c-0.135-0.053-0.262-0.14-0.407-0.142
				c-0.177-0.002-0.326,0.122-0.475,0.216c-0.521,0.328-1.185,0.331-1.792,0.226c-1.28-0.223-2.235-0.973-3.347-1.567
				c-1.089-0.582-2.176-1.174-3.308-1.672c-2.338-1.027-4.902-1.602-7.412-0.859c-7.85,2.326-11.378,9.647-17.589,10.506
				c-6.198,0.872-11.537-1.626-11.537-1.626c2.366-6.37,3.383-15.567,3.727-19.492l0.145,0.013c0,0,15.396-3.647,17.708-4.321
				c4.255-1.255,9.581-2.101,12.541-0.595c1.737,0.88,3.304,2.151,4.78,3.406c3.759,3.194,7.93,7.311,9.156,12.257
				C216.967,367.908,217.032,368.19,217.01,368.467z"/>
			<path style="fill:#E8A289;" d="M195.146,360.807c2.21-0.199,4.426-0.229,6.645-0.172c0.555,0.014,1.112,0.03,1.67,0.069
				c0.279,0.021,0.559,0.047,0.842,0.08l0.434,0.061c0.222,0.05,0.362,0.117,0.503,0.182c1.067,0.533,1.934,1.202,2.844,1.86
				c1.773,1.353,3.471,2.798,4.983,4.462c0.372,0.421,0.735,0.854,1.065,1.322c0.298,0.473,0.709,0.952,0.675,1.68
				c-0.032,0.309-0.153,0.637-0.383,0.87c-0.227,0.235-0.521,0.362-0.805,0.427c-0.575,0.13-1.142,0.061-1.682-0.055
				c0.551,0.01,1.114-0.023,1.605-0.201c0.504-0.174,0.81-0.588,0.771-1.072c0.004-0.404-0.362-0.861-0.689-1.261
				c-0.344-0.407-0.727-0.792-1.12-1.166c-1.584-1.49-3.283-2.888-5.02-4.214c-0.86-0.659-1.768-1.322-2.653-1.827
				c-0.106-0.059-0.22-0.105-0.266-0.121l-0.384-0.069l-0.804-0.108l-1.633-0.187C199.555,361.161,197.354,360.991,195.146,360.807z
				"/>
			<path style="fill:#E8A289;" d="M195.554,357.147c2.412-0.328,4.854-0.207,7.274-0.018c0.607,0.049,1.213,0.107,1.821,0.203
				c0.593,0.091,1.246,0.194,1.856,0.439c1.182,0.48,2.23,1.135,3.241,1.844c2.003,1.427,3.766,3.233,5.174,5.219
				c0.706,1.001,1.377,2.086,1.656,3.334c0.117,0.639,0.077,1.287-0.123,1.888c-0.19,0.597-0.617,1.148-1.198,1.357
				c1.063-0.67,1.169-2.084,0.845-3.125c-0.342-1.101-1.036-2.076-1.79-2.984c-1.532-1.844-3.201-3.51-5.147-4.875
				c-0.952-0.693-1.968-1.324-3.014-1.782c-0.996-0.421-2.25-0.539-3.413-0.757c-1.185-0.188-2.38-0.34-3.576-0.46
				C197.964,357.279,196.765,357.184,195.554,357.147z"/>
			<path style="fill:#E8A289;" d="M195.554,353.635c1.847-0.187,3.699-0.286,5.554-0.272c0.928-0.009,1.856,0.036,2.789,0.089
				c0.466,0.026,0.935,0.084,1.406,0.141c0.499,0.106,0.897,0.079,1.546,0.428c0.46,0.345,0.726,0.662,1.074,0.995l0.973,0.994
				c0.632,0.677,1.271,1.345,1.881,2.04c1.241,1.371,2.427,2.793,3.563,4.262c-1.416-1.2-2.79-2.44-4.122-3.718l-1.994-1.918
				l-0.986-0.964c-0.32-0.3-0.682-0.676-0.963-0.873c-0.06-0.04-0.28-0.106-0.474-0.157c-0.205-0.047-0.428-0.081-0.641-0.124
				c-0.444-0.065-0.892-0.116-1.347-0.166c-0.906-0.105-1.822-0.17-2.739-0.253C199.241,353.996,197.4,353.835,195.554,353.635z"/>
			<path style="fill:#FFC8AF;" d="M295.992,392.467c-0.156,0.699-0.482,1.29-1.037,1.715c-1.733,1.368-3.378,0.573-5.197-0.833
				c-2.71-2.081-5.8-5.512-10.13-5.148c-7.245,0.613-11.629,6.347-17.185,5.978c-4.029-0.258-10.59-2.183-10.907-7.09
				c-0.18-2.784,1.255-6.17,2.739-8.465c3.197-4.942,8.494-4.265,13.657-4.437c2.6-0.086,5.218-0.11,7.813-0.318
				c3.926-0.328,8.71-0.107,11.014,1.735C289.867,378.08,297.057,387.774,295.992,392.467z"/>
			<g>
				<path style="fill:#5E60F4;" d="M155.235,309.048l-0.938-3.675c-0.03-0.118-3.107-11.986-10.796-26.612
					c-3.663-6.967-9.274-14.347-14.226-20.857c-5.97-7.851-10.687-14.053-11.399-18.31l-0.184-1.096l0.996-0.495
					c0.598-0.297,14.781-7.223,26.688-2.556c13.249,5.192,18.119,23.699,18.263,37.97c0.2,19.773-6.297,31.806-6.574,32.309
					L155.235,309.048z M121.122,240.195c1.26,3.689,5.781,9.634,10.541,15.893c5.022,6.604,10.713,14.089,14.493,21.276
					c5.242,9.97,8.348,18.542,9.874,23.298c1.881-4.864,4.738-14.403,4.608-27.215c-0.145-14.391-5.259-30.858-16.357-35.208
					C135.376,234.75,124.556,238.732,121.122,240.195z"/>
			</g>
			<path style="fill:#9962EF;" d="M171.796,354.365c0.228,0.144,0.427,0.324,0.58,0.554c0.283,0.424,0.357,0.95,0.407,1.457
				c0.306,3.114-0.538,6.444-1.067,9.527c-0.646,3.76-1.219,7.914-2.654,11.46c-0.195,0.482-0.431,0.972-0.841,1.293
				c-0.366,0.287-0.834,0.408-1.291,0.493c-3.421,0.638-7.258-0.281-10.214,1.555c-0.877,0.545-1.605,1.299-2.455,1.886
				c-2.249,1.551-4.669,1.175-7.212,1.479c-15.327,1.798-37.264,3.373-59.303,1.541c-36.356-3.014-46.973-6.593-51.374-17.673
				c-0.479-1.164-0.873-2.415-1.233-3.767c-2.346-8.974-0.069-23.512,6.182-40.62c0.017-0.034,0.034-0.086,0.034-0.12
				c3.545-9.71,8.357-20.258,14.333-31.064c9.367-16.971,17.724-31.921,27.691-39.883c0.017-0.017,0.034-0.034,0.051-0.051
				c7.603-6.096,16.149-8.1,26.766-3.853c24.557,9.83-0.445,49.816-5.805,60.313c-2.474,4.849-5.177,9.581-7.918,14.283
				c-2.839,4.871-6.256,9.347-8.877,14.392c1.215,0.287,2.43,0.574,3.645,0.861c0.07,1.173,0.139,2.346,0.209,3.519
				c0,0.756,16.382,3.061,18.068,3.21c6.136,0.54,12.259,1.317,18.385,1.958c4.601,0.481,9.203,0.958,13.806,1.432
				c4.403,0.454,8.845,0.755,13.202,1.538c0.505,0.091,1.01,0.186,1.513,0.286c0.523,0.103,1.054,0.215,1.518,0.476
				c0.387,0.218,0.711,0.53,1.083,0.771c0.866,0.559,1.929,0.695,2.951,0.829c2.73,0.359,5.448,0.811,8.148,1.353
				C170.698,353.913,171.312,354.058,171.796,354.365z"/>
			<path style="fill:#B18DF7;" d="M151.962,260.409c0,0,6.953-1.142,10.175-3.342c3.222-2.2-0.314-15.404-5.088-14.823
				c-4.774,0.581-5.584,14.591-5.584,14.591L151.962,260.409z"/>
			<path style="fill:#B18DF7;" d="M160.845,253.015c-3.937-11.926-13.778-23.736-23.389-29.641
				c-9.61-5.905-31.855-2.807-38.086,0.257c-6.231,3.064,33.223,27.687,33.223,27.687l16.809,9.653l8.143-3.093L160.845,253.015z"/>
			<g>
				<path style="fill:#232770;" d="M128.416,226.828c-0.274-1.25,3.167-10.012,4.949-19.294c2.029-10.573,3.21-20.771,10.323-28.591
					c7.024-7.723,15.38-15.571,26.444-15.958c2.619-0.091,5.406,0.825,6.967,2.931c2.936-2.703,7.663-1.704,11.24,0.067
					c9.721,4.814,27.105,30.252,27.273,30.876c0.178,0.664,0.998,8.491-4.323,15.515c-3.757,4.959-9.25,7.198-13.455,11.783
					c0.486-3.473,0.972-6.946,1.458-10.419c1.046-7.474-4.104-9.426-9.231-13.447c-0.631-0.495-9.611-7.457-9.293-8.004
					c0,0.001-6.918,11.902-9.436,12.57c-2.5,0.668-6.028-3.014-6.867-2.689c-0.839,0.342-3.408,5.874-5.36,7.929
					c-1.952,2.072-3.802,4.812-5.805,3.63c-2.004-1.165,0.171-4.076,2.004-7.312c1.849-3.236-2.5-9.384-6.028-8.871
					c-2.649,0.386-5.148,3.573-6.481,5.631c-1.813,2.799-3.444,7.85-1.275,10.903c0.098,0.139,0.212,0.289,0.195,0.458
					c-0.013,0.136-0.109,0.247-0.199,0.349c-2.137,2.395-4.33,4.74-6.577,7.033c-1.107,1.13-2.223,2.566-3.506,3.492
					c-0.29,0.209-3.008,1.469-2.98,1.554C128.45,226.964,128.433,226.913,128.416,226.828z"/>
				<g>
					<path style="fill:#FFC8AF;" d="M202.96,208.624c-0.925,5.275-2.757,11.662-6.319,18.067
						c-6.953,12.433-18.101,24.129-23.992,28.684c-1.319,1.01-2.363,1.678-3.048,1.918c-3.785,1.336-12.056-5.137-12.056-5.137
						l-5.583,8.254c-21.885,4.367-31.39-18.084-30.602-21.098c0.188-0.719,0.976-2.26,2.072-4.196
						c4.111-7.246,8.675-14.219,13.099-21.275c2.169-3.459,4.213-6.983,6.174-10.529c1.167-2.11,3.984-5.405,6.568-5.768
						c3.528-0.514,7.878,5.634,6.028,8.871c-1.832,3.237-4.007,6.148-2.004,7.312c2.004,1.182,3.853-1.558,5.805-3.631
						c1.952-2.055,4.521-7.586,5.36-7.929c0.839-0.325,4.367,3.357,6.867,2.689c2.517-0.668,9.436-12.57,9.436-12.57
						s12.124,11.662,22.04,16.269C202.857,208.59,202.909,208.607,202.96,208.624z"/>
					<path style="fill:#E8A289;" d="M157.545,252.155l-5.583,8.254c-4.332-7.689-10.326-20.276-10.703-21.063
						C148.195,246.692,157.545,252.155,157.545,252.155z"/>
					<path style="fill:#E8A289;" d="M152.652,204.817c-0.033-1.254-0.847-2.526-2.063-2.832c-0.78-0.197-1.615,0.011-2.331,0.378
						c-1.955,1-3.134,3.056-3.935,5.101c-0.364,0.929-0.677,1.907-0.622,2.903c0.055,0.996,0.547,2.02,1.439,2.467
						c0.334,0.167,0.706,0.247,1.077,0.291c0.55,0.065,1.124,0.054,1.634-0.161c0.51-0.215,0.946-0.663,1.031-1.21
						c0.189-1.207-1.295-2.261-0.982-3.442c0.165-0.623,0.823-1.027,1.467-1.05c0.779-0.028,1.595,0.8,2.28,0.389
						C152.37,207.216,152.672,205.567,152.652,204.817z"/>
				</g>
				<path style="fill:#232770;" d="M142.705,203.312c-3.397,5.958-2.239,11.262-2.239,11.262l-12.065,12.188l7.176-21.914
					L142.705,203.312z"/>
				<path style="fill:#E8A289;" d="M140.466,214.574c0.868,3.647,6.831,6.368,6.831,6.368s-6.426,7.182-8.626,6.022
					C136.472,225.805,140.466,214.574,140.466,214.574z"/>
				<path style="fill:#232770;" d="M157.545,252.155c0,0-4.859-2.846-10.168-7.181l7.85,10.608L157.545,252.155z"/>
			</g>
			<path style="fill:#B18DF7;" d="M150.077,260.971c-3.358-4.251-9.759-11.093-17.484-17.45
				c-4.638-3.818-14.242-12.852-12.157-17.484c2.084-4.631-17.252-4.979-24.662-1.042c-7.41,3.937-13.2,14.01-11.463,17.715
				c1.737,3.705,4.091,3.674,14.049,2.265c9.957-1.409,22.481,7.174,28.857,10.608C141.259,263.146,150.077,260.971,150.077,260.971
				z"/>
			<polygon style="fill:#F0F5F7;" points="147.529,305.002 164.125,305.002 164.125,334.389 147.529,335.759 			"/>
			<g>
				<path style="fill:#C3D3DD;" d="M148.656,334.536V306.13h14.343v27.222L148.656,334.536z M149.156,306.63v27.363l13.343-1.103
					V306.63H149.156z"/>
			</g>
			<polygon style="fill:#C3D3DD;" points="153.029,309.577 159.397,309.577 159.397,317.84 153.029,318.017 			"/>
			<polygon style="fill:#C3D3DD;" points="149.845,326.168 162.118,325.537 162.118,326.693 149.845,327.501 			"/>
			<polygon style="fill:#C3D3DD;" points="149.845,323.563 162.118,323.183 162.118,324.339 149.845,324.896 			"/>
			<polygon style="fill:#C3D3DD;" points="149.845,328.657 162.118,327.737 162.118,328.893 149.845,329.99 			"/>
			<path style="fill:#9962EF;" d="M123.933,235.007c-5.582-5.669-8.746-9.356-6.045-10.977c2.702-1.621,10.513,2.732,10.513,2.732
				L123.933,235.007z"/>
			<g>
				<path style="fill:#8338EA;" d="M157.632,378.223c-0.042,0-0.083-0.005-0.125-0.016c-0.267-0.068-0.428-0.341-0.36-0.608
					c1.922-7.486,2.939-15.201,3.024-22.931c0.002-0.276,0.22-0.496,0.505-0.494c0.276,0.003,0.498,0.229,0.495,0.506
					c-0.086,7.809-1.114,15.604-3.056,23.167C158.058,378.072,157.855,378.223,157.632,378.223z"/>
			</g>
			<g>
				<path style="fill:#8338EA;" d="M244.262,387.815c-0.237,0-0.448-0.17-0.492-0.411c-1.242-6.903,4.174-15.518,10.732-17.07
					c0.268-0.07,0.538,0.102,0.602,0.371c0.064,0.268-0.102,0.538-0.371,0.602c-5.986,1.418-11.114,9.601-9.977,15.92
					c0.049,0.272-0.132,0.532-0.404,0.581C244.321,387.813,244.291,387.815,244.262,387.815z"/>
			</g>
		</g>
		<g>
			<rect x="172.844" y="397.315" style="fill:#A5B7C6;" width="92.976" height="3.711"/>
			
				<rect x="265.821" y="397.315" transform="matrix(-1 -1.224647e-16 1.224647e-16 -1 609.2055 798.3401)" style="fill:#232770;" width="77.564" height="3.711"/>
			<polygon style="fill:#A5B7C6;" points="291.494,311.24 365.22,314.312 338.024,397.315 263.283,397.315 			"/>
			<polygon style="fill:#758D9E;" points="294.032,311.24 368.811,314.467 343.385,397.315 265.821,397.315 			"/>
			<path style="fill:#A5B7C6;" d="M289.189,386.585c-1.517,3.643-4.482,5.874-6.622,4.983c-2.14-0.891-2.645-4.567-1.128-8.211
				c1.517-3.643,4.482-5.875,6.622-4.983C290.201,379.266,290.706,382.942,289.189,386.585z"/>
		</g>
		<g>
			<rect x="15.036" y="401.025" style="fill:#5E60F4;" width="140.386" height="15.362"/>
			
				<rect x="155.422" y="401.025" transform="matrix(-1 -1.224647e-16 1.224647e-16 -1 616.2974 817.413)" style="fill:#232770;" width="305.454" height="15.362"/>
		</g>
		<g>
			<g>
				<path style="fill:#3887FE;" d="M115.167,389.19H46.362H45.57h-4.082v1.087h4.082v9.661h-4.082v1.087h4.082h0.792h68.805
					c3.268,0,5.918-2.649,5.918-5.918C121.085,391.84,118.435,389.19,115.167,389.19z"/>
				<path style="fill:#F9F8F7;" d="M78.105,390.277c2.664,0,4.83,2.167,4.83,4.831c0,2.664-2.167,4.83-4.83,4.83H43.863
					c1.389-3.22,1.389-6.441,0-9.661H78.105z"/>
				<path style="fill:#E9E5D9;" d="M44.481,398.186h37.344h0c0.092-0.111,0.178-0.227,0.26-0.345
					c0.001-0.001,0.002-0.003,0.003-0.004H44.569C44.541,397.953,44.513,398.07,44.481,398.186z M44.901,395.283h38.026
					c0.002-0.059,0.009-0.116,0.009-0.175c0-0.059-0.007-0.116-0.009-0.175H44.901C44.903,395.049,44.903,395.166,44.901,395.283z
					 M44.784,396.734h37.864c0.041-0.115,0.078-0.231,0.111-0.35v0H44.831C44.818,396.501,44.801,396.618,44.784,396.734z
					 M82.087,392.379c-0.083-0.12-0.17-0.238-0.263-0.35H44.481c0.032,0.117,0.06,0.233,0.088,0.35H82.087z M44.831,393.831h37.928
					v0c-0.033-0.118-0.07-0.235-0.111-0.35H44.784C44.801,393.598,44.818,393.714,44.831,393.831z"/>
			</g>
			<g>
				<path style="fill:#FB5507;" d="M123.051,377.355H54.246h-0.792h-4.082v1.087h4.082v9.661h-4.082v1.087h4.082h0.792h68.805
					c3.268,0,5.918-2.65,5.918-5.918S126.319,377.355,123.051,377.355z"/>
				<path style="fill:#F9F8F7;" d="M85.99,378.442c2.664,0,4.83,2.167,4.83,4.831c0,2.664-2.167,4.83-4.83,4.83H51.748
					c1.389-3.22,1.389-6.441,0-9.661H85.99z"/>
				<path style="fill:#E9E5D9;" d="M52.365,386.351h37.344l0,0c0.092-0.111,0.178-0.227,0.26-0.345
					c0.001-0.001,0.002-0.003,0.003-0.004H52.453C52.425,386.118,52.397,386.234,52.365,386.351z M52.785,383.447h38.026
					c0.002-0.059,0.009-0.116,0.009-0.175c0-0.059-0.007-0.116-0.009-0.175H52.785C52.787,383.214,52.787,383.331,52.785,383.447z
					 M52.668,384.899h37.864c0.041-0.115,0.078-0.231,0.111-0.35l0,0H52.715C52.702,384.666,52.685,384.783,52.668,384.899z
					 M89.971,380.543c-0.083-0.12-0.17-0.237-0.263-0.35H52.365c0.032,0.117,0.06,0.233,0.088,0.35H89.971z M52.715,381.995h37.928
					l0,0c-0.033-0.119-0.07-0.235-0.111-0.35H52.668C52.685,381.762,52.702,381.879,52.715,381.995z"/>
			</g>
			<g>
				<path style="fill:#FFBF0B;" d="M118.16,365.519H49.354h-0.792h-4.082v1.087h4.082v9.661h-4.082v1.087h4.082h0.792h68.805
					c3.268,0,5.918-2.649,5.918-5.918C124.077,368.169,121.428,365.519,118.16,365.519z"/>
				<path style="fill:#F9F8F7;" d="M81.098,366.607c2.664,0,4.83,2.167,4.83,4.831s-2.167,4.83-4.83,4.83H46.856
					c1.389-3.22,1.389-6.441,0-9.661H81.098z"/>
				<path style="fill:#E9E5D9;" d="M47.473,374.516h37.344c0,0,0,0,0,0c0.092-0.111,0.178-0.227,0.26-0.345
					c0.001-0.001,0.002-0.003,0.003-0.004H47.561C47.533,374.282,47.505,374.399,47.473,374.516z M47.893,371.612h38.026
					c0.002-0.059,0.009-0.116,0.009-0.175c0-0.059-0.007-0.116-0.009-0.175H47.893C47.895,371.379,47.895,371.495,47.893,371.612z
					 M47.776,373.064H85.64c0.041-0.115,0.078-0.231,0.111-0.35l0,0H47.824C47.81,372.831,47.793,372.947,47.776,373.064z
					 M85.08,368.708c-0.083-0.12-0.17-0.238-0.263-0.35H47.473c0.032,0.117,0.06,0.233,0.088,0.35H85.08z M47.824,370.16h37.928l0,0
					c-0.033-0.119-0.07-0.235-0.111-0.35H47.776C47.793,369.927,47.81,370.043,47.824,370.16z"/>
			</g>
		</g>
		<g>
			<path style="fill:#F9F8F7;" d="M150.692,401.025H129.38c-2.229-2.229-3.478-3.478-5.706-5.706v-26.082h32.725v26.082
				C154.17,397.547,152.921,398.797,150.692,401.025z"/>
			<g>
				<path style="fill:#F9F8F7;" d="M123.674,371.286h-5.146c-0.426,0-0.843,0.173-1.145,0.474c-0.302,0.302-0.474,0.719-0.474,1.145
					v10.555c0.001,4.102,3.324,7.425,7.426,7.426v-3.238c-2.312-0.004-4.184-1.876-4.188-4.188v-8.936h3.527V371.286
					L123.674,371.286z"/>
			</g>
		</g>
	</g>
</g>
</svg>
